<svg xmlns="http://www.w3.org/2000/svg" xmlns:xlink="http://www.w3.org/1999/xlink" xmlns:lucid="lucid" width="1124" height="684"><g transform="translate(-437.5 -258.5)" lucid:page-tab-id="0_0"><path d="M0 0h2000v1000H0z" fill="#fff"/><path d="M635 321.67V286a6 6 0 0 1 6-6h893a6 6 0 0 1 6 6v35.67z" stroke="#000" stroke-width="3" fill="#b8f5ed"/><path d="M1540 321.67V694a6 6 0 0 1-6 6H641a6 6 0 0 1-6-6V321.67z" stroke="#000" stroke-width="3" fill="none"/><use xlink:href="#a" transform="matrix(1,0,0,1,635,280) translate(323.179012345679 25.444444444444443)"/><use xlink:href="#b" transform="matrix(1,0,0,1,635,280) translate(377.3765432098765 25.444444444444443)"/><use xlink:href="#c" transform="matrix(1,0,0,1,635,280) translate(477.12962962962956 25.444444444444443)"/><path d="M680 365.13a6 6 0 0 1 6-6h148a6 6 0 0 1 6 6v108a6 6 0 0 1-6 6H686a6 6 0 0 1-6-6z" stroke="#000" stroke-width="3" fill="#fff"/><use xlink:href="#d" transform="matrix(1,0,0,1,692,371.1333333333333) translate(28.920887962962972 40.93781333333333)"/><use xlink:href="#e" transform="matrix(1,0,0,1,692,371.1333333333333) translate(8.038365555555565 61.84453333333333)"/><use xlink:href="#f" transform="matrix(1,0,0,1,692,371.1333333333333) translate(75.74322962962964 61.84453333333333)"/><path d="M900 365.13a6 6 0 0 1 6-6h148a6 6 0 0 1 6 6v108a6 6 0 0 1-6 6H906a6 6 0 0 1-6-6z" stroke="#000" stroke-width="3" fill="#fff"/><use xlink:href="#g" transform="matrix(1,0,0,1,912,371.1333333333333) translate(8.5949101851852 40.93781333333333)"/><use xlink:href="#h" transform="matrix(1,0,0,1,912,371.1333333333333) translate(78.18718648148149 40.93781333333333)"/><use xlink:href="#i" transform="matrix(1,0,0,1,912,371.1333333333333) translate(35.62362111111111 61.84453333333333)"/><path d="M580 467.13c0 6.63-26.86 12-60 12s-60-5.37-60-12v-96c0-6.62 26.86-12 60-12s60 5.38 60 12z" stroke="#e81313" stroke-width="5" fill="#fff"/><path d="M580 371.13c0 6.63-26.86 12-60 12s-60-5.37-60-12" stroke="#e81313" stroke-width="5" fill="none"/><use xlink:href="#j" transform="matrix(1,0,0,1,465,388.1333333333333) translate(6.327160493827165 47.34027777777778)"/><use xlink:href="#k" transform="matrix(1,0,0,1,465,388.1333333333333) translate(56.820987654320994 47.34027777777778)"/><path d="M1340 546a6 6 0 0 1 6-6h148a6 6 0 0 1 6 6v108a6 6 0 0 1-6 6h-148a6 6 0 0 1-6-6z" stroke="#000" stroke-width="3" fill="#fff"/><use xlink:href="#l" transform="matrix(1,0,0,1,1352,552) translate(0.7790877777777894 52.93781333333333)"/><use xlink:href="#m" transform="matrix(1,0,0,1,1352,552) translate(65.58024074074073 52.93781333333333)"/><path d="M1120 546a6 6 0 0 1 6-6h148a6 6 0 0 1 6 6v108a6 6 0 0 1-6 6h-148a6 6 0 0 1-6-6z" stroke="#000" stroke-width="3" fill="#fff"/><use xlink:href="#n" transform="matrix(1,0,0,1,1132,552) translate(45.302658148148154 31.93781333333333)"/><use xlink:href="#o" transform="matrix(1,0,0,1,1132,552) translate(7.6028088888888945 52.84453333333333)"/><use xlink:href="#p" transform="matrix(1,0,0,1,1132,552) translate(18.177156851851862 73.75125333333334)"/><use xlink:href="#q" transform="matrix(1,0,0,1,1132,552) translate(83.94621351851852 73.75125333333334)"/><path d="M680 546a6 6 0 0 1 6-6h148a6 6 0 0 1 6 6v108a6 6 0 0 1-6 6H686a6 6 0 0 1-6-6z" stroke="#000" stroke-width="3" fill="#fff"/><use xlink:href="#g" transform="matrix(1,0,0,1,692,552) translate(5.207247222222229 52.93781333333333)"/><use xlink:href="#r" transform="matrix(1,0,0,1,692,552) translate(74.79952351851853 52.93781333333333)"/><path d="M580 648c0 6.63-26.86 12-60 12s-60-5.37-60-12v-96c0-6.63 26.86-12 60-12s60 5.37 60 12z" stroke="#54c45e" stroke-width="5" fill="#fff"/><path d="M580 552c0 6.63-26.86 12-60 12s-60-5.37-60-12" stroke="#54c45e" stroke-width="5" fill="none"/><use xlink:href="#s" transform="matrix(1,0,0,1,465,569) translate(13.703703703703702 33.90277777777778)"/><use xlink:href="#k" transform="matrix(1,0,0,1,465,569) translate(31.574074074074076 60.56944444444445)"/><path d="M844.5 419.13h27.03" stroke="#000" stroke-width="6" fill="none"/><path d="M844.58 422.1h-3.08v-5.94h3.08z" stroke="#000" stroke-width=".05"/><path d="M888.8 419.13l-14.27 4.64v-9.27z" stroke="#000" stroke-width="6"/><path d="M1280 806a6 6 0 0 1 6-6h132a6 6 0 0 1 6 6v96c-24.05-17.03-39.02-17.03-48.1-17.03-14.4 0-33.55 17.03-47.95 17.03-8.93 0-24.05 0-47.95-17.03z" stroke="#635dff" stroke-width="4" fill="#fff"/><path d="M1288 815a6 6 0 0 1 6-6h132a6 6 0 0 1 6 6v96c-24.05-17.03-39.02-17.03-48.1-17.03-14.4 0-33.55 17.03-47.95 17.03-8.93 0-24.05 0-47.95-17.03z" stroke="#635dff" stroke-width="4" fill="#fff"/><path d="M1296 824a6 6 0 0 1 6-6h132a6 6 0 0 1 6 6v96c-24.05-17.03-39.02-17.03-48.1-17.03-14.4 0-33.55 17.03-47.95 17.03-8.93 0-24.05 0-47.95-17.03z" stroke="#635dff" stroke-width="4" fill="#fff"/><use xlink:href="#t" transform="matrix(1,0,0,1,1301,823) translate(10.327160493827158 24.80902777777778)"/><use xlink:href="#u" transform="matrix(1,0,0,1,1301,823) translate(23.29012345679012 51.47569444444445)"/><path d="M1007.5 806a6 6 0 0 1 6-6h148a6 6 0 0 1 6 6v108a6 6 0 0 1-6 6h-148a6 6 0 0 1-6-6z" stroke="#635dff" stroke-width="4" fill="#fff"/><path d="M1023.5 800v120m128-120v120" stroke="#635dff" stroke-width="4" fill="none"/><use xlink:href="#v" transform="matrix(1,0,0,1,1032.5,805) translate(33.425925925925924 59.44444444444444)"/><path d="M1275 860h-78.53" stroke="#000" stroke-width="6" fill="none"/><path d="M1278 862.98h-3.08V857h3.08z" stroke="#000" stroke-width=".05"/><path d="M1179.2 860l14.27-4.63v9.26z" stroke="#000" stroke-width="6"/><path d="M1069.02 769.88l-.52-3.45-.68-7.08-.3-8 .13-8.14.55-7.5.8-6.08m36.98 0l.52 3.45.68 7.08.3 8-.13 8.14-.55 7.5-.8 6.08" stroke="#635dff" stroke-width="6" fill="none"/><path d="M1075.63 785.1l-9.93-11.24 8.5-3.7zM1075.62 714.4l-1.45 14.93-8.5-3.7zM1099.37 714.4l9.93 11.24-8.5 3.7zM1099.38 785.1l1.45-14.93 8.5 3.7z" stroke="#635dff" stroke-width="6" fill="#635dff"/><use xlink:href="#w" transform="matrix(1,0,0,1,995.3476057528227,738.4893698709307) translate(0.005000000000002558 14.222222222222223)"/><use xlink:href="#x" transform="matrix(1,0,0,1,1115.4541174384758,739.7421761534831) translate(0.004999999999999005 14.222222222222223)"/><path d="M680 800c26.56 19.92 43.36 19.92 53.28 19.92 16 0 37.28-19.92 53.28-19.92 10.08 0 26.72 0 53.44 19.92V920c-26.72-20.04-43.36-20.04-53.44-20.04-16 0-37.28 20.04-53.28 20.04-9.92 0-26.72 0-53.28-20.04z" stroke="#ba23f6" stroke-width="5" fill="#fff"/><use xlink:href="#y" transform="matrix(1,0,0,1,685,805) translate(48.91499518518519 58.62531333333333)"/><path d="M760 664.5v115.82" stroke="#ba23f6" stroke-width="6" fill="none"/><path d="M762.98 664.58H757v-3.08H763z" stroke="#ba23f6" stroke-width=".05" fill="#ba23f6"/><path d="M760 797.6l-4.63-14.28h9.26z" stroke="#ba23f6" stroke-width="6" fill="#ba23f6"/><path d="M1064.5 420h27.03" stroke="#000" stroke-width="6" fill="none"/><path d="M1064.58 422.98h-3.08v-5.96h3.08z" stroke="#000" stroke-width=".05"/><path d="M1108.8 420l-14.27 4.63v-9.26z" stroke="#000" stroke-width="6"/><path d="M900 546a6 6 0 0 1 6-6h148a6 6 0 0 1 6 6v108a6 6 0 0 1-6 6H906a6 6 0 0 1-6-6z" stroke="#000" stroke-width="3" fill="#fff"/><use xlink:href="#z" transform="matrix(1,0,0,1,912,552) translate(33.203861851851855 52.93781333333333)"/><use xlink:href="#A" transform="matrix(1,0,0,1,912,552) translate(61.17627888888889 52.93781333333333)"/><path d="M1120 366a6 6 0 0 1 6-6h148a6 6 0 0 1 6 6v108a6 6 0 0 1-6 6h-148a6 6 0 0 1-6-6z" stroke="#000" stroke-width="3" fill="#fff"/><use xlink:href="#g" transform="matrix(1,0,0,1,1132,372) translate(8.5949101851852 40.93781333333333)"/><use xlink:href="#h" transform="matrix(1,0,0,1,1132,372) translate(78.18718648148149 40.93781333333333)"/><use xlink:href="#B" transform="matrix(1,0,0,1,1132,372) translate(49.658224814814815 61.84453333333333)"/><path d="M1284.5 420h27.03" stroke="#000" stroke-width="6" fill="none"/><path d="M1284.58 422.98h-3.08v-5.96h3.08z" stroke="#000" stroke-width=".05"/><path d="M1328.8 420l-14.27 4.63v-9.26z" stroke="#000" stroke-width="6"/><path d="M1420 484.5v27.03" stroke="#000" stroke-width="6" fill="none"/><path d="M1422.97 484.58h-5.94v-3.08h5.94z" stroke="#000" stroke-width=".05"/><path d="M1420 528.8l-4.63-14.27h9.27z" stroke="#000" stroke-width="6"/><path d="M1335.5 600h-27.03" stroke="#000" stroke-width="6" fill="none"/><path d="M1338.5 602.98h-3.08V597h3.08z" stroke="#000" stroke-width=".05"/><path d="M1291.2 600l14.27-4.63v9.26z" stroke="#000" stroke-width="6"/><path d="M1115.5 600h-27.03" stroke="#000" stroke-width="6" fill="none"/><path d="M1118.5 602.98h-3.08V597h3.08z" stroke="#000" stroke-width=".05"/><path d="M1071.2 600l14.27-4.63v9.26z" stroke="#000" stroke-width="6"/><path d="M895.5 600h-27.03" stroke="#000" stroke-width="6" fill="none"/><path d="M898.5 602.98h-3.08V597h3.08z" stroke="#000" stroke-width=".05"/><path d="M851.2 600l14.27-4.63v9.26z" stroke="#000" stroke-width="6"/><path d="M673.5 600h-55.55" stroke="#54c45e" stroke-width="10" fill="none"/><path d="M678.5 604.98h-5.13V595h5.13z" stroke="#54c45e" stroke-width=".05" fill="#54c45e"/><path d="M598.68 600l14.27-4.63v9.26z" stroke="#54c45e" stroke-width="10" fill="#54c45e"/><path d="M1340 366a6 6 0 0 1 6-6h148a6 6 0 0 1 6 6v108a6 6 0 0 1-6 6h-148a6 6 0 0 1-6-6z" stroke="#000" stroke-width="3" fill="#fff"/><g><use xlink:href="#C" transform="matrix(1,0,0,1,1352,372) translate(13.36183592592593 52.93781333333333)"/><use xlink:href="#m" transform="matrix(1,0,0,1,1352,372) translate(52.99749259259259 52.93781333333333)"/></g><path d="M587.5 419.13h55.55" stroke="#e81313" stroke-width="10" fill="none"/><path d="M587.63 424.1h-5.13v-9.94h5.13z" stroke="#e81313" stroke-width=".05" fill="#e81313"/><path d="M662.32 419.13l-14.27 4.64v-9.27z" stroke="#e81313" stroke-width="10" fill="#e81313"/><defs><path d="M24-248c120-7 223 5 221 122C244-46 201 0 124 0H24v-248zM76-40c74 7 117-18 117-86 0-67-45-88-117-82v168" id="D"/><path d="M133-34C117-15 103 5 69 4 32 3 11-16 11-54c-1-60 55-63 116-61 1-26-3-47-28-47-18 1-26 9-28 27l-52-2c7-38 36-58 82-57s74 22 75 68l1 82c-1 14 12 18 25 15v27c-30 8-71 5-69-32zm-48 3c29 0 43-24 42-57-32 0-66-3-65 30 0 17 8 27 23 27" id="E"/><path d="M115-3C79 11 28 4 28-45v-112H4v-33h27l15-45h31v45h36v33H77v99c-1 23 16 31 38 25v30" id="F"/><g id="a"><use transform="matrix(0.06172839506172839,0,0,0.06172839506172839,0,0)" xlink:href="#D"/><use transform="matrix(0.06172839506172839,0,0,0.06172839506172839,15.987654320987653,0)" xlink:href="#E"/><use transform="matrix(0.06172839506172839,0,0,0.06172839506172839,28.333333333333332,0)" xlink:href="#F"/><use transform="matrix(0.06172839506172839,0,0,0.06172839506172839,35.67901234567901,0)" xlink:href="#E"/></g><path d="M67-125c0 53 21 87 73 88 37 1 54-22 65-47l45 17C233-25 199 4 140 4 58 4 20-42 15-125 8-235 124-281 211-232c18 10 29 29 36 50l-46 12c-8-25-30-41-62-41-52 0-71 34-72 86" id="G"/><path d="M25 0v-261h50V0H25" id="H"/><path d="M185-48c-13 30-37 53-82 52C43 2 14-33 14-96s30-98 90-98c62 0 83 45 84 108H66c0 31 8 55 39 56 18 0 30-7 34-22zm-45-69c5-46-57-63-70-21-2 6-4 13-4 21h74" id="I"/><path d="M135-194c87-1 58 113 63 194h-50c-7-57 23-157-34-157-59 0-34 97-39 157H25l-1-190h47c2 12-1 28 3 38 12-26 28-41 61-42" id="J"/><path d="M25-224v-37h50v37H25zM25 0v-190h50V0H25" id="K"/><path d="M195-6C206 82 75 100 31 46c-4-6-6-13-8-21l49-6c3 16 16 24 34 25 40 0 42-37 40-79-11 22-30 35-61 35-53 0-70-43-70-97 0-56 18-96 73-97 30 0 46 14 59 34l2-30h47zm-90-29c32 0 41-27 41-63 0-35-9-62-40-62-32 0-39 29-40 63 0 36 9 62 39 62" id="L"/><g id="b"><use transform="matrix(0.06172839506172839,0,0,0.06172839506172839,0,0)" xlink:href="#G"/><use transform="matrix(0.06172839506172839,0,0,0.06172839506172839,15.987654320987653,0)" xlink:href="#H"/><use transform="matrix(0.06172839506172839,0,0,0.06172839506172839,22.160493827160494,0)" xlink:href="#I"/><use transform="matrix(0.06172839506172839,0,0,0.06172839506172839,34.50617283950617,0)" xlink:href="#E"/><use transform="matrix(0.06172839506172839,0,0,0.06172839506172839,46.85185185185185,0)" xlink:href="#J"/><use transform="matrix(0.06172839506172839,0,0,0.06172839506172839,60.37037037037037,0)" xlink:href="#K"/><use transform="matrix(0.06172839506172839,0,0,0.06172839506172839,66.5432098765432,0)" xlink:href="#J"/><use transform="matrix(0.06172839506172839,0,0,0.06172839506172839,80.06172839506172,0)" xlink:href="#L"/></g><path d="M140-251c80 0 125 45 125 126S219 4 139 4C58 4 15-44 15-125s44-126 125-126zm-1 214c52 0 73-35 73-88 0-50-21-86-72-86-52 0-73 35-73 86s22 88 72 88" id="M"/><path d="M135-194c53 0 70 44 70 98 0 56-19 98-73 100-31 1-45-17-59-34 3 33 2 69 2 105H25l-1-265h48c2 10 0 23 3 31 11-24 29-35 60-35zM114-30c33 0 39-31 40-66 0-38-9-64-40-64-56 0-55 130 0 130" id="N"/><path d="M135-150c-39-12-60 13-60 57V0H25l-1-190h47c2 13-1 29 3 40 6-28 27-53 61-41v41" id="O"/><path d="M110-194c64 0 96 36 96 99 0 64-35 99-97 99-61 0-95-36-95-99 0-62 34-99 96-99zm-1 164c35 0 45-28 45-65 0-40-10-65-43-65-34 0-45 26-45 65 0 36 10 65 43 65" id="P"/><g id="c"><use transform="matrix(0.06172839506172839,0,0,0.06172839506172839,0,0)" xlink:href="#M"/><use transform="matrix(0.06172839506172839,0,0,0.06172839506172839,17.28395061728395,0)" xlink:href="#N"/><use transform="matrix(0.06172839506172839,0,0,0.06172839506172839,30.80246913580247,0)" xlink:href="#I"/><use transform="matrix(0.06172839506172839,0,0,0.06172839506172839,43.148148148148145,0)" xlink:href="#O"/><use transform="matrix(0.06172839506172839,0,0,0.06172839506172839,51.79012345679012,0)" xlink:href="#E"/><use transform="matrix(0.06172839506172839,0,0,0.06172839506172839,64.1358024691358,0)" xlink:href="#F"/><use transform="matrix(0.06172839506172839,0,0,0.06172839506172839,71.48148148148148,0)" xlink:href="#K"/><use transform="matrix(0.06172839506172839,0,0,0.06172839506172839,77.65432098765432,0)" xlink:href="#P"/><use transform="matrix(0.06172839506172839,0,0,0.06172839506172839,91.17283950617283,0)" xlink:href="#J"/></g><path d="M190 0L58-211 59 0H30v-248h39L202-35l-2-213h31V0h-41" id="Q"/><path d="M100-194c62-1 85 37 85 99 1 63-27 99-86 99S16-35 15-95c0-66 28-99 85-99zM99-20c44 1 53-31 53-75 0-43-8-75-51-75s-53 32-53 75 10 74 51 75" id="R"/><path d="M114-163C36-179 61-72 57 0H25l-1-190h30c1 12-1 29 2 39 6-27 23-49 58-41v29" id="S"/><path d="M210-169c-67 3-38 105-44 169h-31v-121c0-29-5-50-35-48C34-165 62-65 56 0H25l-1-190h30c1 10-1 24 2 32 10-44 99-50 107 0 11-21 27-35 58-36 85-2 47 119 55 194h-31v-121c0-29-5-49-35-48" id="T"/><path d="M141-36C126-15 110 5 73 4 37 3 15-17 15-53c-1-64 63-63 125-63 3-35-9-54-41-54-24 1-41 7-42 31l-33-3c5-37 33-52 76-52 45 0 72 20 72 64v82c-1 20 7 32 28 27v20c-31 9-61-2-59-35zM48-53c0 20 12 33 32 33 41-3 63-29 60-74-43 2-92-5-92 41" id="U"/><path d="M24 0v-261h32V0H24" id="V"/><path d="M24-231v-30h32v30H24zM24 0v-190h32V0H24" id="W"/><path d="M9 0v-24l116-142H16v-24h144v24L44-24h123V0H9" id="X"/><path d="M100-194c63 0 86 42 84 106H49c0 40 14 67 53 68 26 1 43-12 49-29l28 8c-11 28-37 45-77 45C44 4 14-33 15-96c1-61 26-98 85-98zm52 81c6-60-76-77-97-28-3 7-6 17-6 28h103" id="Y"/><g id="d"><use transform="matrix(0.04839518518518518,0,0,0.04839518518518518,0,0)" xlink:href="#Q"/><use transform="matrix(0.04839518518518518,0,0,0.04839518518518518,12.534352962962961,0)" xlink:href="#R"/><use transform="matrix(0.04839518518518518,0,0,0.04839518518518518,22.213389999999997,0)" xlink:href="#S"/><use transform="matrix(0.04839518518518518,0,0,0.04839518518518518,27.972417037037033,0)" xlink:href="#T"/><use transform="matrix(0.04839518518518518,0,0,0.04839518518518518,42.4425774074074,0)" xlink:href="#U"/><use transform="matrix(0.04839518518518518,0,0,0.04839518518518518,52.121614444444425,0)" xlink:href="#V"/><use transform="matrix(0.04839518518518518,0,0,0.04839518518518518,55.94483407407406,0)" xlink:href="#W"/><use transform="matrix(0.04839518518518518,0,0,0.04839518518518518,59.768053703703686,0)" xlink:href="#X"/><use transform="matrix(0.04839518518518518,0,0,0.04839518518518518,68.47918703703702,0)" xlink:href="#Y"/></g><path d="M106-169C34-169 62-67 57 0H25v-261h32l-1 103c12-21 28-36 61-36 89 0 53 116 60 194h-32v-121c2-32-8-49-39-48" id="Z"/><path d="M85-194c31 0 48 13 60 33l-1-100h32l1 261h-30c-2-10 0-23-3-31C134-8 116 4 85 4 32 4 16-35 15-94c0-66 23-100 70-100zm9 24c-40 0-46 34-46 75 0 40 6 74 45 74 42 0 51-32 51-76 0-42-9-74-50-73" id="aa"/><path d="M135-143c-3-34-86-38-87 0 15 53 115 12 119 90S17 21 10-45l28-5c4 36 97 45 98 0-10-56-113-15-118-90-4-57 82-63 122-42 12 7 21 19 24 35" id="ab"/><g id="e"><use transform="matrix(0.04839518518518518,0,0,0.04839518518518518,0,0)" xlink:href="#Z"/><use transform="matrix(0.04839518518518518,0,0,0.04839518518518518,9.679037037037036,0)" xlink:href="#Y"/><use transform="matrix(0.04839518518518518,0,0,0.04839518518518518,19.35807407407407,0)" xlink:href="#U"/><use transform="matrix(0.04839518518518518,0,0,0.04839518518518518,29.03711111111111,0)" xlink:href="#aa"/><use transform="matrix(0.04839518518518518,0,0,0.04839518518518518,38.71614814814814,0)" xlink:href="#Y"/><use transform="matrix(0.04839518518518518,0,0,0.04839518518518518,48.39518518518518,0)" xlink:href="#S"/><use transform="matrix(0.04839518518518518,0,0,0.04839518518518518,54.15421222222221,0)" xlink:href="#ab"/></g><path d="M117-194c89-4 53 116 60 194h-32v-121c0-31-8-49-39-48C34-167 62-67 57 0H25l-1-190h30c1 10-1 24 2 32 11-22 29-35 61-36" id="ac"/><g id="f"><use transform="matrix(0.04839518518518518,0,0,0.04839518518518518,0,0)" xlink:href="#ac"/><use transform="matrix(0.04839518518518518,0,0,0.04839518518518518,9.679037037037036,0)" xlink:href="#U"/><use transform="matrix(0.04839518518518518,0,0,0.04839518518518518,19.35807407407407,0)" xlink:href="#T"/><use transform="matrix(0.04839518518518518,0,0,0.04839518518518518,33.82823444444444,0)" xlink:href="#Y"/><use transform="matrix(0.04839518518518518,0,0,0.04839518518518518,43.507271481481474,0)" xlink:href="#ab"/></g><path d="M233-177c-1 41-23 64-60 70L243 0h-38l-65-103H63V0H30v-248c88 3 205-21 203 71zM63-129c60-2 137 13 137-47 0-61-80-42-137-45v92" id="ad"/><path d="M108 0H70L1-190h34L89-25l56-165h34" id="ae"/><g id="g"><use transform="matrix(0.04839518518518518,0,0,0.04839518518518518,0,0)" xlink:href="#ad"/><use transform="matrix(0.04839518518518518,0,0,0.04839518518518518,12.534352962962961,0)" xlink:href="#Y"/><use transform="matrix(0.04839518518518518,0,0,0.04839518518518518,22.213389999999997,0)" xlink:href="#T"/><use transform="matrix(0.04839518518518518,0,0,0.04839518518518518,36.68355037037037,0)" xlink:href="#R"/><use transform="matrix(0.04839518518518518,0,0,0.04839518518518518,46.3625874074074,0)" xlink:href="#ae"/><use transform="matrix(0.04839518518518518,0,0,0.04839518518518518,55.07372074074073,0)" xlink:href="#Y"/></g><g id="h"><use transform="matrix(0.04839518518518518,0,0,0.04839518518518518,0,0)" xlink:href="#W"/><use transform="matrix(0.04839518518518518,0,0,0.04839518518518518,3.8232196296296292,0)" xlink:href="#ac"/><use transform="matrix(0.04839518518518518,0,0,0.04839518518518518,13.502256666666666,0)" xlink:href="#ae"/><use transform="matrix(0.04839518518518518,0,0,0.04839518518518518,22.213389999999997,0)" xlink:href="#U"/><use transform="matrix(0.04839518518518518,0,0,0.04839518518518518,31.892427037037034,0)" xlink:href="#V"/><use transform="matrix(0.04839518518518518,0,0,0.04839518518518518,35.71564666666666,0)" xlink:href="#W"/><use transform="matrix(0.04839518518518518,0,0,0.04839518518518518,39.538866296296284,0)" xlink:href="#aa"/></g><path d="M96-169c-40 0-48 33-48 73s9 75 48 75c24 0 41-14 43-38l32 2c-6 37-31 61-74 61-59 0-76-41-82-99-10-93 101-131 147-64 4 7 5 14 7 22l-32 3c-4-21-16-35-41-35" id="af"/><path d="M84 4C-5 8 30-112 23-190h32v120c0 31 7 50 39 49 72-2 45-101 50-169h31l1 190h-30c-1-10 1-25-2-33-11 22-28 36-60 37" id="ag"/><g id="i"><use transform="matrix(0.04839518518518518,0,0,0.04839518518518518,0,0)" xlink:href="#af"/><use transform="matrix(0.04839518518518518,0,0,0.04839518518518518,8.711133333333333,0)" xlink:href="#R"/><use transform="matrix(0.04839518518518518,0,0,0.04839518518518518,18.39017037037037,0)" xlink:href="#V"/><use transform="matrix(0.04839518518518518,0,0,0.04839518518518518,22.21339,0)" xlink:href="#ag"/><use transform="matrix(0.04839518518518518,0,0,0.04839518518518518,31.892427037037038,0)" xlink:href="#T"/><use transform="matrix(0.04839518518518518,0,0,0.04839518518518518,46.3625874074074,0)" xlink:href="#ac"/><use transform="matrix(0.04839518518518518,0,0,0.04839518518518518,56.04162444444444,0)" xlink:href="#ab"/></g><path d="M206 0h-36l-40-164L89 0H53L-1-190h32L70-26l43-164h34l41 164 42-164h31" id="ah"/><g id="j"><use transform="matrix(0.06172839506172839,0,0,0.06172839506172839,0,0)" xlink:href="#ad"/><use transform="matrix(0.06172839506172839,0,0,0.06172839506172839,15.987654320987653,0)" xlink:href="#U"/><use transform="matrix(0.06172839506172839,0,0,0.06172839506172839,28.333333333333332,0)" xlink:href="#ah"/></g><path d="M30-248c118-7 216 8 213 122C240-48 200 0 122 0H30v-248zM63-27c89 8 146-16 146-99s-60-101-146-95v194" id="ai"/><path d="M59-47c-2 24 18 29 38 22v24C64 9 27 4 27-40v-127H5v-23h24l9-43h21v43h35v23H59v120" id="aj"/><g id="k"><use transform="matrix(0.06172839506172839,0,0,0.06172839506172839,0,0)" xlink:href="#ai"/><use transform="matrix(0.06172839506172839,0,0,0.06172839506172839,15.987654320987653,0)" xlink:href="#U"/><use transform="matrix(0.06172839506172839,0,0,0.06172839506172839,28.333333333333332,0)" xlink:href="#aj"/><use transform="matrix(0.06172839506172839,0,0,0.06172839506172839,34.50617283950617,0)" xlink:href="#U"/></g><path d="M30 0v-248h187v28H63v79h144v27H63v87h162V0H30" id="ak"/><path d="M101-234c-31-9-42 10-38 44h38v23H63V0H32v-167H5v-23h27c-7-52 17-82 69-68v24" id="al"/><g id="l"><use transform="matrix(0.04839518518518518,0,0,0.04839518518518518,0,0)" xlink:href="#ak"/><use transform="matrix(0.04839518518518518,0,0,0.04839518518518518,11.614844444444444,0)" xlink:href="#ac"/><use transform="matrix(0.04839518518518518,0,0,0.04839518518518518,21.293881481481478,0)" xlink:href="#al"/><use transform="matrix(0.04839518518518518,0,0,0.04839518518518518,26.133399999999998,0)" xlink:href="#R"/><use transform="matrix(0.04839518518518518,0,0,0.04839518518518518,35.81243703703703,0)" xlink:href="#S"/><use transform="matrix(0.04839518518518518,0,0,0.04839518518518518,41.571464074074065,0)" xlink:href="#af"/><use transform="matrix(0.04839518518518518,0,0,0.04839518518518518,50.282597407407394,0)" xlink:href="#Y"/></g><g id="m"><use transform="matrix(0.04839518518518518,0,0,0.04839518518518518,0,0)" xlink:href="#ab"/><use transform="matrix(0.04839518518518518,0,0,0.04839518518518518,8.711133333333333,0)" xlink:href="#af"/><use transform="matrix(0.04839518518518518,0,0,0.04839518518518518,17.422266666666665,0)" xlink:href="#Z"/><use transform="matrix(0.04839518518518518,0,0,0.04839518518518518,27.1013037037037,0)" xlink:href="#Y"/><use transform="matrix(0.04839518518518518,0,0,0.04839518518518518,36.78034074074073,0)" xlink:href="#T"/><use transform="matrix(0.04839518518518518,0,0,0.04839518518518518,51.250501111111106,0)" xlink:href="#U"/><use transform="matrix(0.04839518518518518,0,0,0.04839518518518518,60.92953814814814,0)" xlink:href="#ab"/></g><path d="M212-179c-10-28-35-45-73-45-59 0-87 40-87 99 0 60 29 101 89 101 43 0 62-24 78-52l27 14C228-24 195 4 139 4 59 4 22-46 18-125c-6-104 99-153 187-111 19 9 31 26 39 46" id="am"/><g id="n"><use transform="matrix(0.04839518518518518,0,0,0.04839518518518518,0,0)" xlink:href="#am"/><use transform="matrix(0.04839518518518518,0,0,0.04839518518518518,12.534352962962961,0)" xlink:href="#V"/><use transform="matrix(0.04839518518518518,0,0,0.04839518518518518,16.35757259259259,0)" xlink:href="#Y"/><use transform="matrix(0.04839518518518518,0,0,0.04839518518518518,26.03660962962962,0)" xlink:href="#U"/><use transform="matrix(0.04839518518518518,0,0,0.04839518518518518,35.71564666666666,0)" xlink:href="#ac"/></g><path d="M16-82v-28h88v28H16" id="an"/><path d="M177-190C167-65 218 103 67 71c-23-6-38-20-44-43l32-5c15 47 100 32 89-28v-30C133-14 115 1 83 1 29 1 15-40 15-95c0-56 16-97 71-98 29-1 48 16 59 35 1-10 0-23 2-32h30zM94-22c36 0 50-32 50-73 0-42-14-75-50-75-39 0-46 34-46 75s6 73 46 73" id="ao"/><g id="o"><use transform="matrix(0.04839518518518518,0,0,0.04839518518518518,0,0)" xlink:href="#ac"/><use transform="matrix(0.04839518518518518,0,0,0.04839518518518518,9.679037037037036,0)" xlink:href="#R"/><use transform="matrix(0.04839518518518518,0,0,0.04839518518518518,19.35807407407407,0)" xlink:href="#ac"/><use transform="matrix(0.04839518518518518,0,0,0.04839518518518518,29.03711111111111,0)" xlink:href="#an"/><use transform="matrix(0.04839518518518518,0,0,0.04839518518518518,34.796138148148145,0)" xlink:href="#af"/><use transform="matrix(0.04839518518518518,0,0,0.04839518518518518,43.50727148148148,0)" xlink:href="#R"/><use transform="matrix(0.04839518518518518,0,0,0.04839518518518518,53.186308518518516,0)" xlink:href="#ac"/><use transform="matrix(0.04839518518518518,0,0,0.04839518518518518,62.86534555555555,0)" xlink:href="#al"/><use transform="matrix(0.04839518518518518,0,0,0.04839518518518518,67.70486407407407,0)" xlink:href="#R"/><use transform="matrix(0.04839518518518518,0,0,0.04839518518518518,77.3839011111111,0)" xlink:href="#S"/><use transform="matrix(0.04839518518518518,0,0,0.04839518518518518,83.14292814814814,0)" xlink:href="#T"/><use transform="matrix(0.04839518518518518,0,0,0.04839518518518518,97.61308851851851,0)" xlink:href="#W"/><use transform="matrix(0.04839518518518518,0,0,0.04839518518518518,101.43630814814814,0)" xlink:href="#ac"/><use transform="matrix(0.04839518518518518,0,0,0.04839518518518518,111.11534518518518,0)" xlink:href="#ao"/></g><g id="p"><use transform="matrix(0.04839518518518518,0,0,0.04839518518518518,0,0)" xlink:href="#ab"/><use transform="matrix(0.04839518518518518,0,0,0.04839518518518518,8.711133333333333,0)" xlink:href="#af"/><use transform="matrix(0.04839518518518518,0,0,0.04839518518518518,17.422266666666665,0)" xlink:href="#Z"/><use transform="matrix(0.04839518518518518,0,0,0.04839518518518518,27.1013037037037,0)" xlink:href="#Y"/><use transform="matrix(0.04839518518518518,0,0,0.04839518518518518,36.78034074074073,0)" xlink:href="#T"/><use transform="matrix(0.04839518518518518,0,0,0.04839518518518518,51.250501111111106,0)" xlink:href="#U"/></g><g id="q"><use transform="matrix(0.04839518518518518,0,0,0.04839518518518518,0,0)" xlink:href="#aa"/><use transform="matrix(0.04839518518518518,0,0,0.04839518518518518,9.679037037037036,0)" xlink:href="#U"/><use transform="matrix(0.04839518518518518,0,0,0.04839518518518518,19.35807407407407,0)" xlink:href="#aj"/><use transform="matrix(0.04839518518518518,0,0,0.04839518518518518,24.19759259259259,0)" xlink:href="#U"/></g><g id="r"><use transform="matrix(0.04839518518518518,0,0,0.04839518518518518,0,0)" xlink:href="#R"/><use transform="matrix(0.04839518518518518,0,0,0.04839518518518518,9.679037037037036,0)" xlink:href="#ag"/><use transform="matrix(0.04839518518518518,0,0,0.04839518518518518,19.35807407407407,0)" xlink:href="#aj"/><use transform="matrix(0.04839518518518518,0,0,0.04839518518518518,24.19759259259259,0)" xlink:href="#V"/><use transform="matrix(0.04839518518518518,0,0,0.04839518518518518,28.02081222222222,0)" xlink:href="#W"/><use transform="matrix(0.04839518518518518,0,0,0.04839518518518518,31.84403185185185,0)" xlink:href="#Y"/><use transform="matrix(0.04839518518518518,0,0,0.04839518518518518,41.523068888888886,0)" xlink:href="#S"/><use transform="matrix(0.04839518518518518,0,0,0.04839518518518518,47.28209592592592,0)" xlink:href="#ab"/></g><g id="s"><use transform="matrix(0.06172839506172839,0,0,0.06172839506172839,0,0)" xlink:href="#am"/><use transform="matrix(0.06172839506172839,0,0,0.06172839506172839,15.987654320987653,0)" xlink:href="#V"/><use transform="matrix(0.06172839506172839,0,0,0.06172839506172839,20.864197530864196,0)" xlink:href="#Y"/><use transform="matrix(0.06172839506172839,0,0,0.06172839506172839,33.20987654320987,0)" xlink:href="#U"/><use transform="matrix(0.06172839506172839,0,0,0.06172839506172839,45.55555555555555,0)" xlink:href="#ac"/><use transform="matrix(0.06172839506172839,0,0,0.06172839506172839,57.90123456790123,0)" xlink:href="#Y"/><use transform="matrix(0.06172839506172839,0,0,0.06172839506172839,70.24691358024691,0)" xlink:href="#aa"/></g><path d="M33 0v-248h34V0H33" id="ap"/><g id="t"><use transform="matrix(0.06172839506172839,0,0,0.06172839506172839,0,0)" xlink:href="#ap"/><use transform="matrix(0.06172839506172839,0,0,0.06172839506172839,6.172839506172839,0)" xlink:href="#ac"/><use transform="matrix(0.06172839506172839,0,0,0.06172839506172839,18.51851851851852,0)" xlink:href="#ab"/><use transform="matrix(0.06172839506172839,0,0,0.06172839506172839,29.62962962962963,0)" xlink:href="#aj"/><use transform="matrix(0.06172839506172839,0,0,0.06172839506172839,35.80246913580247,0)" xlink:href="#S"/><use transform="matrix(0.06172839506172839,0,0,0.06172839506172839,43.148148148148145,0)" xlink:href="#ag"/><use transform="matrix(0.06172839506172839,0,0,0.06172839506172839,55.49382716049382,0)" xlink:href="#af"/><use transform="matrix(0.06172839506172839,0,0,0.06172839506172839,66.60493827160494,0)" xlink:href="#aj"/><use transform="matrix(0.06172839506172839,0,0,0.06172839506172839,72.77777777777777,0)" xlink:href="#W"/><use transform="matrix(0.06172839506172839,0,0,0.06172839506172839,77.65432098765432,0)" xlink:href="#R"/><use transform="matrix(0.06172839506172839,0,0,0.06172839506172839,90,0)" xlink:href="#ac"/></g><path d="M30-248c87 1 191-15 191 75 0 78-77 80-158 76V0H30v-248zm33 125c57 0 124 11 124-50 0-59-68-47-124-48v98" id="aq"/><path d="M115-194c55 1 70 41 70 98S169 2 115 4C84 4 66-9 55-30l1 105H24l-1-265h31l2 30c10-21 28-34 59-34zm-8 174c40 0 45-34 45-75s-6-73-45-74c-42 0-51 32-51 76 0 43 10 73 51 73" id="ar"/><g id="u"><use transform="matrix(0.06172839506172839,0,0,0.06172839506172839,0,0)" xlink:href="#aq"/><use transform="matrix(0.06172839506172839,0,0,0.06172839506172839,14.814814814814813,0)" xlink:href="#S"/><use transform="matrix(0.06172839506172839,0,0,0.06172839506172839,22.160493827160494,0)" xlink:href="#R"/><use transform="matrix(0.06172839506172839,0,0,0.06172839506172839,34.50617283950617,0)" xlink:href="#T"/><use transform="matrix(0.06172839506172839,0,0,0.06172839506172839,52.96296296296296,0)" xlink:href="#ar"/><use transform="matrix(0.06172839506172839,0,0,0.06172839506172839,65.30864197530865,0)" xlink:href="#ab"/></g><path d="M30 0v-248h33v221h125V0H30" id="as"/><path d="M240 0l2-218c-23 76-54 145-80 218h-23L58-218 59 0H30v-248h44l77 211c21-75 51-140 76-211h43V0h-30" id="at"/><g id="v"><use transform="matrix(0.06172839506172839,0,0,0.06172839506172839,0,0)" xlink:href="#as"/><use transform="matrix(0.06172839506172839,0,0,0.06172839506172839,12.345679012345679,0)" xlink:href="#as"/><use transform="matrix(0.06172839506172839,0,0,0.06172839506172839,24.691358024691358,0)" xlink:href="#at"/></g><path d="M160-131c35 5 61 23 61 61C221 17 115-2 30 0v-248c76 3 177-17 177 60 0 33-19 50-47 57zm-97-11c50-1 110 9 110-42 0-47-63-36-110-37v79zm0 115c55-2 124 14 124-45 0-56-70-42-124-44v89" id="au"/><g id="w"><use transform="matrix(0.04938271604938272,0,0,0.04938271604938272,0,0)" xlink:href="#au"/><use transform="matrix(0.04938271604938272,0,0,0.04938271604938272,11.851851851851853,0)" xlink:href="#U"/><use transform="matrix(0.04938271604938272,0,0,0.04938271604938272,21.7283950617284,0)" xlink:href="#aj"/><use transform="matrix(0.04938271604938272,0,0,0.04938271604938272,26.666666666666668,0)" xlink:href="#af"/><use transform="matrix(0.04938271604938272,0,0,0.04938271604938272,35.55555555555556,0)" xlink:href="#Z"/><use transform="matrix(0.04938271604938272,0,0,0.04938271604938272,45.4320987654321,0)" xlink:href="#Y"/><use transform="matrix(0.04938271604938272,0,0,0.04938271604938272,55.308641975308646,0)" xlink:href="#ab"/></g><path d="M153-248C145-148 188 4 80 4 36 3 13-21 6-62l32-5c4 25 16 42 43 43 27 0 39-20 39-49v-147H72v-28h81" id="av"/><path d="M185-189c-5-48-123-54-124 2 14 75 158 14 163 119 3 78-121 87-175 55-17-10-28-26-33-46l33-7c5 56 141 63 141-1 0-78-155-14-162-118-5-82 145-84 179-34 5 7 8 16 11 25" id="aw"/><path d="M140-251c81 0 123 46 123 126C263-46 219 4 140 4 59 4 17-45 17-125s42-126 123-126zm0 227c63 0 89-41 89-101s-29-99-89-99c-61 0-89 39-89 99S79-25 140-24" id="ax"/><g id="x"><use transform="matrix(0.04938271604938272,0,0,0.04938271604938272,0,0)" xlink:href="#av"/><use transform="matrix(0.04938271604938272,0,0,0.04938271604938272,8.88888888888889,0)" xlink:href="#aw"/><use transform="matrix(0.04938271604938272,0,0,0.04938271604938272,20.74074074074074,0)" xlink:href="#ax"/><use transform="matrix(0.04938271604938272,0,0,0.04938271604938272,34.5679012345679,0)" xlink:href="#Q"/></g><g id="y"><use transform="matrix(0.04839518518518518,0,0,0.04839518518518518,0,0)" xlink:href="#ad"/><use transform="matrix(0.04839518518518518,0,0,0.04839518518518518,12.534352962962961,0)" xlink:href="#Y"/><use transform="matrix(0.04839518518518518,0,0,0.04839518518518518,22.213389999999997,0)" xlink:href="#ar"/><use transform="matrix(0.04839518518518518,0,0,0.04839518518518518,31.892427037037034,0)" xlink:href="#R"/><use transform="matrix(0.04839518518518518,0,0,0.04839518518518518,41.571464074074065,0)" xlink:href="#S"/><use transform="matrix(0.04839518518518518,0,0,0.04839518518518518,47.3304911111111,0)" xlink:href="#aj"/></g><path d="M63-220v92h138v28H63V0H30v-248h175v28H63" id="ay"/><path d="M141 0L90-78 38 0H4l68-98-65-92h35l48 74 47-74h35l-64 92 68 98h-35" id="az"/><g id="z"><use transform="matrix(0.04839518518518518,0,0,0.04839518518518518,0,0)" xlink:href="#ay"/><use transform="matrix(0.04839518518518518,0,0,0.04839518518518518,10.598545555555555,0)" xlink:href="#W"/><use transform="matrix(0.04839518518518518,0,0,0.04839518518518518,14.421765185185183,0)" xlink:href="#az"/></g><path d="M179-190L93 31C79 59 56 82 12 73V49c39 6 53-20 64-50L1-190h34L92-34l54-156h33" id="aA"/><g id="A"><use transform="matrix(0.04839518518518518,0,0,0.04839518518518518,0,0)" xlink:href="#aj"/><use transform="matrix(0.04839518518518518,0,0,0.04839518518518518,4.839518518518518,0)" xlink:href="#aA"/><use transform="matrix(0.04839518518518518,0,0,0.04839518518518518,13.55065185185185,0)" xlink:href="#ar"/><use transform="matrix(0.04839518518518518,0,0,0.04839518518518518,23.229688888888887,0)" xlink:href="#R"/><use transform="matrix(0.04839518518518518,0,0,0.04839518518518518,32.90872592592592,0)" xlink:href="#ab"/></g><g id="B"><use transform="matrix(0.04839518518518518,0,0,0.04839518518518518,0,0)" xlink:href="#S"/><use transform="matrix(0.04839518518518518,0,0,0.04839518518518518,5.759027037037036,0)" xlink:href="#R"/><use transform="matrix(0.04839518518518518,0,0,0.04839518518518518,15.438064074074072,0)" xlink:href="#ah"/><use transform="matrix(0.04839518518518518,0,0,0.04839518518518518,27.972417037037033,0)" xlink:href="#ab"/></g><g id="C"><use transform="matrix(0.04839518518518518,0,0,0.04839518518518518,0,0)" xlink:href="#ap"/><use transform="matrix(0.04839518518518518,0,0,0.04839518518518518,4.839518518518518,0)" xlink:href="#ac"/><use transform="matrix(0.04839518518518518,0,0,0.04839518518518518,14.518555555555555,0)" xlink:href="#al"/><use transform="matrix(0.04839518518518518,0,0,0.04839518518518518,19.35807407407407,0)" xlink:href="#Y"/><use transform="matrix(0.04839518518518518,0,0,0.04839518518518518,29.03711111111111,0)" xlink:href="#S"/></g></defs></g></svg>